<svg width="179" height="77" viewBox="0 0 179 77" fill="none" xmlns="http://www.w3.org/2000/svg">
<path d="M60.0759 0.947266C60.6341 1.0398 60.96 1.10633 61.3624 1.51575C61.4572 1.65558 61.5519 1.79541 61.6495 1.93948C61.7595 2.09882 61.8696 2.25817 61.983 2.42234C62.1584 2.68473 62.1584 2.68473 62.3373 2.95242C62.5958 3.32872 62.8543 3.705 63.1128 4.08127C63.2474 4.27927 63.382 4.47726 63.5207 4.68126C64.2081 5.68903 64.9089 6.68738 65.6089 7.68641C65.7496 7.88787 65.8904 8.08932 66.0353 8.29689C67.1253 9.85479 68.2354 11.3973 69.352 12.9362C70.2745 14.2094 71.1751 15.4953 72.0663 16.7907C73.8222 19.3398 75.6275 21.8539 77.4446 24.3597C78.4232 25.7124 79.3838 27.0769 80.3385 28.4466C81.7954 30.5359 83.2784 32.6048 84.7749 34.6658C85.4284 35.5667 86.0795 36.4694 86.7309 37.3718C86.9922 37.7337 87.2536 38.0955 87.5149 38.4573C88.0375 39.181 88.5602 39.9046 89.0828 40.6283C89.277 40.8971 89.277 40.8971 89.475 41.1713C89.7357 41.5323 89.9965 41.8934 90.2572 42.2544C90.9193 43.1712 91.5815 44.0879 92.2442 45.0042C92.7708 45.7325 93.2969 46.4612 93.8225 47.1903C94.3144 47.8726 94.8083 48.5534 95.3037 49.2332C95.5268 49.5409 95.7498 49.8488 95.9727 50.1566C96.0757 50.2969 96.1787 50.4372 96.2848 50.5818C96.9829 51.5492 96.9829 51.5492 96.9829 52.0864C95.5201 52.1765 94.0589 52.2417 92.5939 52.2851C92.097 52.3032 91.6002 52.3278 91.104 52.3593C87.1038 52.6066 87.1038 52.6066 85.8922 51.7487C85.0768 50.9195 84.5104 49.9758 83.9769 48.9491C83.5383 48.1414 82.9972 47.4062 82.4643 46.6589C82.2431 46.3356 82.0223 46.0121 81.8019 45.6883C80.9409 44.4278 80.0661 43.1768 79.1927 41.9249C77.4494 39.4232 75.7285 36.9066 74.0141 34.385C73.3297 33.3794 72.6431 32.3753 71.9561 31.3714C71.8259 31.1811 71.6957 30.9908 71.5616 30.7947C70.9895 29.959 70.4169 29.1237 69.8416 28.2902C68.0738 25.7281 66.3292 23.1505 64.5865 20.5713C64.0704 19.8076 63.5527 19.0451 63.0344 18.2829C62.7236 17.8243 62.4151 17.3643 62.1067 16.9041C61.9104 16.614 61.714 16.324 61.5176 16.034C61.3442 15.7763 61.1709 15.5186 60.9924 15.253C60.7775 14.9778 60.7775 14.9778 60.5583 14.6969C60.3991 14.6969 60.2399 14.6969 60.0759 14.6969C59.7733 15.0417 59.7733 15.0417 59.4785 15.5045C59.3584 15.6826 59.2384 15.8608 59.1148 16.0444C58.9842 16.2415 58.8536 16.4387 58.719 16.6418C58.4347 17.0644 58.1501 17.4868 57.8653 17.9091C57.7147 18.1331 57.5641 18.357 57.409 18.5877C56.6209 19.7512 55.815 20.9022 55.0102 22.0542C53.4288 24.3226 51.8629 26.6012 50.3041 28.8852C49.517 30.0371 48.7256 31.1861 47.9347 32.3354C47.5075 32.9562 47.081 33.5774 46.6551 34.1992C44.1613 37.8376 41.6249 41.4461 39.0782 45.0476C38.5822 45.7492 38.0873 46.4516 37.5932 47.1545C37.4651 47.3365 37.3371 47.5185 37.2051 47.706C36.9633 48.0498 36.7216 48.3936 36.4803 48.7377C36.2644 49.0443 36.0464 49.3494 35.8257 49.6525C35.4672 50.149 35.4672 50.149 35.1681 50.664C34.3256 51.9848 34.3256 51.9848 33.5226 52.2552C32.9299 52.3095 32.3663 52.3039 31.7719 52.2748C31.5597 52.2721 31.3476 52.2694 31.1291 52.2665C30.4552 52.2558 29.7825 52.2316 29.109 52.207C28.6507 52.1973 28.1925 52.1885 27.7342 52.1806C26.614 52.1594 25.4947 52.1261 24.375 52.0864C24.5816 51.1141 25.0433 50.4479 25.6263 49.6591C25.785 49.4407 25.785 49.4407 25.9469 49.2178C26.3056 48.7253 26.6668 48.2347 27.0284 47.7444C27.1585 47.5676 27.2886 47.3909 27.4225 47.2088C27.9833 46.447 28.5445 45.6855 29.1063 44.9245C31.3309 41.9107 33.5137 38.87 35.6553 35.7966C36.6006 34.4422 37.5608 33.0996 38.5317 31.7634C39.6142 30.2734 40.669 28.7678 41.7062 27.246C42.5183 26.0587 43.3544 24.8908 44.2004 23.7277C45.5886 21.8182 46.9406 19.8851 48.2857 17.9451C49.245 16.5617 50.2083 15.1815 51.1808 13.8074C52.3642 12.1353 53.5402 10.4582 54.7135 8.77903C55.4027 7.79325 56.0937 6.80892 56.7902 5.82825C56.9197 5.64572 57.0492 5.46319 57.1826 5.27513C57.4234 4.9362 57.6646 4.59759 57.9063 4.25936C58.6724 3.18046 59.3861 2.07644 60.0759 0.947266Z" fill="white"/>
<path d="M70.207 1.18728C76.1914 1.0857 82.1756 1.00921 88.1606 0.962308C90.9398 0.939949 93.7185 0.909486 96.4974 0.859719C98.9204 0.816344 101.343 0.788407 103.766 0.778744C105.049 0.773098 106.331 0.759904 107.613 0.728197C116.047 0.527631 116.047 0.527631 117.812 2.11072C118.543 2.98769 119.009 3.90213 119.415 4.96383C119.831 5.93425 120.474 6.73953 121.105 7.57966C121.345 7.91849 121.584 8.25794 121.822 8.59826C122.965 10.2172 124.13 11.8206 125.292 13.4254C125.948 14.3306 126.602 15.2369 127.256 16.1431C127.517 16.5049 127.779 16.8667 128.04 17.2285C129.608 19.3995 129.608 19.3995 130 19.9422C130.261 20.3043 130.523 20.6663 130.784 21.0283C131.435 21.9294 132.086 22.8309 132.735 23.7331C134.075 25.5928 135.423 27.4461 136.784 29.2897C138.718 31.907 140.627 34.5415 142.513 37.1934C143.69 38.848 144.89 40.4842 146.097 42.1168C147.22 43.6371 148.328 45.1675 149.431 46.7021C150.382 48.0218 151.353 49.3238 152.34 50.6161C152.705 51.1203 152.705 51.1203 152.705 51.3615C151.203 51.4395 149.703 51.4961 148.2 51.5337C147.69 51.5494 147.179 51.5708 146.67 51.598C142.568 51.8118 142.568 51.8118 141.397 51.0773C140.521 50.261 139.994 49.2746 139.438 48.2256C139.174 47.8528 138.905 47.4842 138.626 47.1222C138.389 46.7918 138.152 46.4611 137.915 46.13C137.647 45.7571 137.379 45.3843 137.111 45.0115C136.91 44.7315 136.91 44.7315 136.706 44.4458C136.05 43.5333 135.392 42.623 134.734 41.7126C134.473 41.3508 134.211 40.9889 133.95 40.6271C133.756 40.3584 133.756 40.3584 133.558 40.0843C132.121 38.0943 130.683 36.1042 129.246 34.1141C129.117 33.935 128.987 33.7558 128.854 33.5713C128.593 33.2097 128.332 32.848 128.071 32.4864C127.415 31.5783 126.759 30.6706 126.102 29.7636C124.706 27.8366 123.322 25.9026 121.953 23.9567C120.693 22.1679 119.411 20.3956 118.127 18.6237C117.455 17.6968 116.785 16.7692 116.115 15.8415C115.92 15.5726 115.92 15.5726 115.722 15.2982C115.11 14.4506 114.499 13.6019 113.893 12.7499C113.784 12.5969 113.675 12.4438 113.563 12.2861C113.362 12.0041 113.162 11.7219 112.963 11.4395C112.704 11.0757 112.442 10.7146 112.18 10.3537C111.97 10.0376 111.97 10.0376 111.757 9.71519C111.263 9.0919 111.263 9.0919 110.54 9.00284C110.278 9.00562 110.017 9.0084 109.747 9.01126C109.446 9.01141 109.145 9.01156 108.835 9.01171C108.502 9.01793 108.169 9.02425 107.837 9.03065C107.485 9.03295 107.134 9.03469 106.783 9.0359C106.027 9.0395 105.271 9.04669 104.515 9.05651C103.319 9.0716 102.123 9.07597 100.927 9.07836C97.5247 9.08673 94.1231 9.10826 90.7214 9.14337C88.8424 9.16266 86.9637 9.17241 85.0846 9.17189C83.8962 9.17212 82.7087 9.18414 81.5204 9.20496C80.7794 9.21515 80.0387 9.21417 79.2976 9.21011C78.9553 9.21045 78.613 9.2153 78.2708 9.22512C75.6966 9.29539 75.6966 9.29539 74.6588 8.34294C74.1591 7.66654 73.7464 6.99005 73.3429 6.25294C73.0538 5.79916 72.7626 5.34665 72.4685 4.89607C72.3332 4.67965 72.198 4.46322 72.0586 4.24024C71.5448 3.42585 71.0065 2.62933 70.4643 1.83368C70.207 1.4285 70.207 1.4285 70.207 1.18728Z" fill="white"/>
<path d="M60.3182 27.4805C61.2519 27.7917 61.3847 28.1498 61.9078 28.973C62.1595 29.3648 62.1595 29.3648 62.4163 29.7645C62.5044 29.9035 62.5925 30.0425 62.6833 30.1857C63.1431 30.9104 63.6098 31.6305 64.076 32.3511C64.2145 32.5656 64.2145 32.5656 64.3557 32.7845C66.426 35.9845 68.7154 39.0347 70.9834 42.0957C72.2567 43.8145 73.5254 45.5366 74.7915 47.2607C74.941 47.4637 75.0904 47.6668 75.2444 47.876C75.6877 48.4791 76.1293 49.0834 76.5705 49.688C76.707 49.8733 76.8436 50.0587 76.9842 50.2496C77.1083 50.4203 77.2323 50.591 77.3601 50.7669C77.47 50.9171 77.5799 51.0673 77.6931 51.2221C77.9274 51.6027 77.9274 51.6027 77.9274 52.0851C76.6065 52.1815 75.2876 52.2509 73.964 52.2971C73.5154 52.3164 73.0671 52.3426 72.6193 52.3763C69.0188 52.6398 69.0188 52.6398 67.802 51.7281C66.9253 50.8202 66.2747 49.7856 65.6526 48.6925C65.3189 48.1128 64.9351 47.5809 64.5358 47.0449C64.3154 46.7302 64.0955 46.4152 63.8762 46.0998C63.637 45.7589 63.3976 45.4181 63.1582 45.0774C63.0452 44.9165 62.9323 44.7555 62.8159 44.5897C62.3381 43.9099 61.8576 43.2323 61.3735 42.5569C61.2261 42.3504 61.0787 42.1439 60.9269 41.9312C60.591 41.445 60.591 41.445 60.077 41.2301C59.9972 41.4755 59.9972 41.4755 59.9158 41.7258C59.5009 42.6433 58.9301 43.364 58.313 44.1549C56.7567 46.1859 55.3152 48.287 53.888 50.41C53.7811 50.5648 53.6741 50.7196 53.564 50.879C53.4494 51.0543 53.3348 51.2297 53.2167 51.4103C52.8403 51.8439 52.8403 51.8439 51.9517 52.0239C50.237 52.1431 48.5126 52.1106 46.7947 52.1002C46.4443 52.099 46.0939 52.0979 45.7436 52.0969C44.8928 52.0943 44.0421 52.0901 43.1914 52.0851C44.5778 48.4724 47.714 45.0765 50.0851 42.0537C52.9688 38.3643 55.5612 34.4882 58.1545 30.5917C58.8563 29.5398 59.5783 28.5059 60.3182 27.4805Z" fill="white"/>
<path d="M76.7188 61.252C77.7536 61.252 78.7884 61.252 79.8546 61.252C80.6822 62.1619 81.1914 62.8625 81.7844 63.9054C82.1056 64.3924 82.4294 64.8777 82.7559 65.3612C83.071 65.8454 83.3854 66.33 83.6991 66.8151C83.861 67.0637 84.0228 67.3123 84.1896 67.5685C85.3662 69.3805 85.3662 69.3805 85.644 69.936C85.7236 67.0702 85.8032 64.2045 85.8852 61.252C86.92 61.252 87.9549 61.252 89.0211 61.252C89.0265 63.1349 89.0309 65.0178 89.0336 66.9007C89.0348 67.775 89.0365 68.6492 89.0393 69.5234C89.0419 70.3664 89.0433 71.2095 89.044 72.0525C89.0446 72.5321 89.0465 73.0117 89.0484 73.4913C89.0484 73.781 89.0484 74.0708 89.0485 74.3693C89.049 74.6259 89.0495 74.8825 89.0501 75.1468C89.0211 75.7253 89.0211 75.7253 88.7799 75.9665C87.7328 76.2782 86.927 76.3105 85.8852 75.9665C84.8708 74.9988 84.2409 73.6714 83.5691 72.4571C83.0153 71.4862 82.389 70.5641 81.7693 69.6344C81.1076 68.6366 80.4873 67.7 80.0959 66.5588C79.9367 66.5588 79.7774 66.5588 79.6134 66.5588C79.6147 66.8353 79.6159 67.1117 79.6172 67.3965C79.6216 68.4183 79.6244 69.4401 79.6267 70.4619C79.6279 70.9049 79.6295 71.3478 79.6316 71.7908C79.6345 72.426 79.6359 73.0613 79.637 73.6966C79.6382 73.8958 79.6395 74.0951 79.6407 74.3004C79.6408 74.7754 79.6284 75.2505 79.6134 75.7253C79.494 75.8447 79.494 75.8447 79.3722 75.9665C78.4966 75.9665 77.6209 75.9665 76.7188 75.9665C76.7188 71.1107 76.7188 66.2549 76.7188 61.252Z" fill="white"/>
<path d="M98.0219 60.8872C98.2017 60.8886 98.3816 60.89 98.5668 60.8914C100.346 60.9488 101.704 61.4065 102.996 62.67C103.343 63.0642 103.663 63.4815 103.977 63.9025C103.571 64.8047 103.087 65.244 102.289 65.8323C101.458 65.4633 100.819 64.9573 100.118 64.385C99.1638 63.9081 98.0212 64.0408 96.9816 64.1437C95.6629 64.7432 95.1774 65.5362 94.5694 66.7972C94.1834 68.0718 94.0397 69.4877 94.5638 70.735C95.1776 71.7536 95.797 72.5614 96.9364 72.9936C98.1181 73.1624 98.8891 73.2181 99.9517 72.6167C101.067 71.7351 101.067 71.7351 101.324 70.1743C100.289 70.1743 99.254 70.1743 98.1878 70.1743C98.1878 69.2987 98.1878 68.423 98.1878 67.5209C99.1476 67.5144 100.107 67.5096 101.067 67.5058C101.341 67.5038 101.616 67.5017 101.898 67.4997C102.158 67.4989 102.419 67.4981 102.687 67.4973C103.049 67.4954 103.049 67.4954 103.418 67.4935C103.977 67.5209 103.977 67.5209 104.218 67.7621C104.243 68.3498 104.252 68.9306 104.25 69.5185C104.251 69.6943 104.251 69.87 104.251 70.0511C104.251 70.4234 104.251 70.7957 104.25 71.168C104.248 71.7398 104.25 72.3116 104.251 72.8833C104.251 73.2442 104.251 73.6051 104.25 73.966C104.251 74.1381 104.251 74.3103 104.252 74.4876C104.246 75.6947 104.246 75.6947 103.977 75.9636C103.284 76.0239 103.284 76.0239 102.53 75.9636C102.121 75.598 102.121 75.598 101.806 75.24C101.661 75.2894 101.515 75.3388 101.365 75.3898C101.172 75.4548 100.98 75.5198 100.781 75.5867C100.591 75.6511 100.4 75.7155 100.204 75.7818C98.2464 76.4074 96.6516 76.4759 94.7503 75.5867C93.5255 74.9146 92.6614 74.2512 91.916 73.069C91.8171 72.9275 91.7182 72.786 91.6163 72.6402C90.5594 70.7997 90.667 68.3606 90.9511 66.3147C91.519 64.3769 92.6107 62.8151 94.3282 61.7315C95.6002 61.0817 96.6218 60.8747 98.0219 60.8872Z" fill="white"/>
<path d="M175.978 61.3741C177.049 62.0058 177.78 62.9169 178.516 63.9041C177.953 64.467 177.39 65.0298 176.828 65.5927C175.894 65.5283 175.355 64.9626 174.657 64.3866C173.769 63.7743 172.805 63.7462 171.762 63.9041C170.606 64.3363 169.764 65.0312 169.108 66.0751C168.548 67.505 168.279 69.1885 168.8 70.6715C169.3 71.614 169.873 72.3069 170.797 72.8293C171.981 73.117 172.904 73.1851 174.054 72.7539C174.665 72.369 174.665 72.369 175.139 71.8644C175.236 71.3041 175.317 70.741 175.38 70.1759C174.425 70.1759 173.47 70.1759 172.486 70.1759C172.486 69.3002 172.486 68.4246 172.486 67.5224C173.445 67.516 174.405 67.5112 175.365 67.5074C175.639 67.5053 175.913 67.5033 176.196 67.5012C176.456 67.5005 176.717 67.4997 176.985 67.4989C177.347 67.497 177.347 67.497 177.716 67.4951C178.275 67.5224 178.275 67.5224 178.516 67.7637C178.537 68.3542 178.544 68.938 178.54 69.5285C178.539 69.7049 178.539 69.8812 178.539 70.0629C178.537 70.6283 178.534 71.1936 178.531 71.7589C178.53 72.1413 178.529 72.5237 178.528 72.9061C178.525 73.8454 178.521 74.7847 178.516 75.724C176.649 75.7598 176.649 75.7598 176.089 75.4375C175.935 75.3729 175.78 75.3082 175.621 75.2415C175.375 75.3541 175.128 75.4667 174.873 75.5827C173.144 76.3604 170.859 76.3165 169.08 75.708C167.2 74.6592 165.876 72.962 165.249 70.8995C165.145 70.143 165.134 69.401 165.143 68.6381C165.146 68.3329 165.146 68.3329 165.149 68.0216C165.218 65.5155 166.101 63.9466 167.902 62.2156C170.272 60.3775 173.237 60.269 175.978 61.3741Z" fill="white"/>
<path d="M136.301 61.252C137.336 61.252 138.37 61.252 139.437 61.252C140.38 62.4306 141.207 63.6373 142.033 64.8981C142.246 65.223 142.46 65.5474 142.675 65.8715C143.039 66.4213 143.402 66.9724 143.764 67.5237C143.939 67.7878 143.939 67.7878 144.118 68.0573C144.227 68.2245 144.336 68.3917 144.449 68.564C144.595 68.7865 144.595 68.7865 144.744 69.0135C144.998 69.4783 145.12 69.9012 145.226 70.4184C145.385 70.4184 145.544 70.4184 145.708 70.4184C145.708 67.3935 145.708 64.3685 145.708 61.252C146.584 61.252 147.46 61.252 148.362 61.252C148.362 66.1078 148.362 70.9636 148.362 75.9665C147.407 75.9665 146.451 75.9665 145.467 75.9665C144.729 75.1322 144.291 74.51 143.779 73.5543C143.509 73.1219 143.236 72.691 142.962 72.2615C142.696 71.8285 142.43 71.395 142.165 70.9611C141.898 70.525 141.631 70.0891 141.364 69.6533C141.24 69.4516 141.116 69.25 140.989 69.0422C140.692 68.5665 140.384 68.1024 140.065 67.6406C139.678 67.0413 139.678 67.0413 139.678 66.5588C139.519 66.5588 139.359 66.5588 139.195 66.5588C139.195 69.5838 139.195 72.6087 139.195 75.7253C138.24 75.7253 137.285 75.7253 136.301 75.7253C136.301 70.9491 136.301 66.1729 136.301 61.252Z" fill="white"/>
<path d="M7.09852 60.9863C7.43492 60.9879 7.77131 60.9908 8.10769 60.9948C8.27918 60.9959 8.45067 60.997 8.62736 60.9981C9.05217 61.001 9.47698 61.0053 9.90178 61.0099C9.99227 61.2723 10.0828 61.5348 10.176 61.8052C10.9991 64.1808 10.9991 64.1808 11.9371 66.5128C12.743 68.3931 13.3824 70.3345 14.0452 72.2686C14.2373 72.8115 14.4452 73.3458 14.6565 73.8813C14.9674 74.7595 14.9674 74.7595 14.9674 75.7244C13.9326 75.7244 12.8978 75.7244 11.8316 75.7244C11.1928 74.5631 10.9633 73.6989 10.6254 72.3473C8.87418 72.3473 7.1229 72.3473 5.31856 72.3473C5.20413 72.7702 5.0897 73.1931 4.9718 73.6288C4.78071 74.3351 4.58507 75.0302 4.35367 75.7244C3.23923 75.7244 2.12478 75.7244 0.976562 75.7244C1.58901 73.2386 2.48523 70.8786 3.38878 68.4878C3.58025 67.9791 3.77149 67.4703 3.96263 66.9615C4.08146 66.6453 4.2005 66.3292 4.31975 66.0131C4.83566 64.6418 5.32372 63.2613 5.80572 61.8777C6.13162 61.0143 6.13162 61.0143 7.09852 60.9863Z" fill="white"/>
<path d="M55.7344 61.252C56.6896 61.252 57.6449 61.252 58.629 61.252C58.629 63.1624 58.629 65.0729 58.629 67.0413C60.6987 67.0413 62.7684 67.0413 64.9008 67.0413C64.9008 65.1308 64.9008 63.2203 64.9008 61.252C65.9357 61.252 66.9705 61.252 68.0367 61.252C68.0367 66.0282 68.0367 70.8043 68.0367 75.7253C67.0019 75.7253 65.967 75.7253 64.9008 75.7253C64.9008 73.8148 64.9008 71.9043 64.9008 69.936C62.8311 69.936 60.7614 69.936 58.629 69.936C58.629 71.8464 58.629 73.7569 58.629 75.7253C57.6738 75.7253 56.7186 75.7253 55.7344 75.7253C55.7344 70.9491 55.7344 66.1729 55.7344 61.252Z" fill="white"/>
<path d="M151.017 61.252C152.052 61.252 153.086 61.252 154.153 61.252C154.157 61.5268 154.162 61.8017 154.167 62.0849C154.185 63.1118 154.207 64.1386 154.229 65.1653C154.238 65.6084 154.247 66.0515 154.254 66.4946C154.265 67.1342 154.279 67.7737 154.294 68.4132C154.297 68.6091 154.299 68.8049 154.302 69.0066C154.334 70.2687 154.494 71.3824 154.876 72.5894C155.77 73.2023 156.713 73.1646 157.771 73.0718C158.795 72.6954 158.795 72.6954 159.495 71.9043C159.715 71.3473 159.767 70.9403 159.778 70.3437C159.782 70.141 159.787 69.9382 159.792 69.7293C159.796 69.4043 159.796 69.4043 159.801 69.0728C159.805 68.8493 159.81 68.6258 159.815 68.3955C159.829 67.6828 159.84 66.9701 159.851 66.2573C159.861 65.7736 159.87 65.2899 159.88 64.8062C159.903 63.6215 159.923 62.4368 159.942 61.252C161.056 61.252 162.171 61.252 163.319 61.252C163.343 62.6506 163.36 64.0492 163.372 65.448C163.377 65.9229 163.383 66.3979 163.392 66.8727C163.404 67.559 163.409 68.2451 163.413 68.9315C163.418 69.1406 163.423 69.3498 163.428 69.5653C163.429 71.3398 163.005 72.9737 161.889 74.3835C161.656 74.5701 161.656 74.5701 161.419 74.7604C161.266 74.8897 161.112 75.0191 160.954 75.1524C159.154 76.2796 156.925 76.174 154.876 75.9665C153.428 75.5993 152.583 74.7823 151.74 73.5543C150.987 72.1325 150.919 70.9721 150.946 69.3791C150.947 69.1459 150.948 68.9127 150.949 68.6724C150.953 67.9326 150.962 67.193 150.971 66.4533C150.975 65.9497 150.978 65.446 150.981 64.9424C150.989 63.7122 151.002 62.4821 151.017 61.252Z" fill="white"/>
<path d="M132.924 61.9735C133.491 62.4682 133.491 62.4682 133.889 62.9384C133.889 63.8584 133.26 64.4399 132.683 65.1094C131.955 64.9537 131.357 64.7036 130.693 64.3706C129.594 63.8717 128.817 63.7791 127.617 63.9032C127.379 64.0624 127.14 64.2217 126.894 64.3857C126.883 64.9595 126.883 64.9595 127.135 65.5918C128.084 66.273 129.035 66.6417 130.135 67.0241C131.669 67.5654 132.895 68.1771 134.01 69.376C134.62 70.7226 134.571 71.977 134.115 73.3712C133.16 74.7268 132.128 75.5414 130.512 75.9643C128.083 76.1829 125.798 76.1533 123.764 74.6471C123.351 74.2758 123.351 74.2758 122.793 73.5521C122.901 72.5265 123.458 72.0182 124.24 71.3811C125.007 71.4611 125.45 71.7793 126.049 72.2405C127.289 73.048 128.594 73.0304 130.03 72.8285C130.268 72.6693 130.507 72.51 130.753 72.346C130.814 71.6022 130.814 71.6022 130.753 70.8987C130.452 70.7625 130.15 70.627 129.849 70.4916C129.652 70.403 129.454 70.3144 129.251 70.2231C128.789 70.0233 128.323 69.8335 127.853 69.6521C126.139 68.9848 124.651 68.329 123.652 66.7225C123.378 65.4129 123.3 64.3357 123.909 63.1193C126.457 60.1688 129.633 60.1153 132.924 61.9735Z" fill="white"/>
<path d="M115.314 61.4914C115.932 61.9256 116.475 62.3993 117.002 62.9388C116.701 63.7732 116.357 64.4216 115.796 65.1098C115.094 64.9627 114.572 64.736 113.957 64.371C112.822 63.7819 111.746 63.7612 110.489 63.9037C110.251 64.0231 110.251 64.0231 110.007 64.1449C109.848 64.8756 109.848 64.8756 109.766 65.5922C110.498 65.8922 111.236 66.1717 111.98 66.4403C112.358 66.5797 112.735 66.7192 113.113 66.8586C113.3 66.9249 113.488 66.9911 113.681 67.0593C115.073 67.5809 116.55 68.3048 117.244 69.693C117.28 70.24 117.297 70.7882 117.304 71.3363C117.31 71.6314 117.316 71.9265 117.323 72.2305C117.205 73.4809 116.739 74.0618 115.857 74.9245C114.042 76.2159 111.91 76.1442 109.766 75.9648C108.087 75.5781 107.021 74.8437 105.906 73.5526C106.219 72.614 106.559 71.989 107.354 71.3816C108.294 71.3816 109.015 72.0768 109.766 72.5877C110.468 72.8217 110.948 72.8686 111.681 72.8741C111.99 72.8792 111.99 72.8792 112.305 72.8845C112.935 72.8258 113.325 72.6643 113.867 72.3464C113.867 71.8688 113.867 71.3912 113.867 70.8991C113.578 70.7698 113.289 70.6404 112.992 70.5071C112.796 70.4182 112.599 70.3293 112.397 70.2376C111.889 70.018 111.376 69.8124 110.859 69.6157C107.446 68.2813 107.446 68.2813 106.63 66.5571C106.396 65.3097 106.504 64.269 106.916 63.0745C108.859 60.3282 112.44 60.1818 115.314 61.4914Z" fill="white"/>
<path d="M127.137 1.66992C130.639 1.66992 134.142 1.66992 137.75 1.66992C137.75 4.21723 137.75 6.76453 137.75 9.38903C134.248 9.38903 130.745 9.38903 127.137 9.38903C127.137 6.84172 127.137 4.29442 127.137 1.66992Z" fill="white"/>
<path d="M42.4648 61.0095C44.1094 61.0035 45.754 60.9991 47.3985 60.9962C47.9585 60.995 48.5184 60.9934 49.0784 60.9913C49.8813 60.9884 50.6842 60.987 51.4871 60.9859C51.7391 60.9847 51.9912 60.9834 52.2508 60.9821C52.4826 60.9821 52.7144 60.9821 52.9532 60.9821C53.1584 60.9816 53.3636 60.981 53.5749 60.9805C54.0435 61.0095 54.0435 61.0095 54.2847 61.2507C54.3085 61.6924 54.316 62.1351 54.3149 62.5774C54.3158 62.9394 54.3158 62.9394 54.3168 63.3086C54.2847 63.9041 54.2847 63.9041 54.0435 64.1454C52.6903 64.1454 51.337 64.1454 49.9427 64.1454C49.9427 67.9663 49.9427 71.7873 49.9427 75.724C48.9079 75.724 47.873 75.724 46.8068 75.724C46.8068 71.8235 46.8068 67.9229 46.8068 63.9041C45.374 63.9041 43.9411 63.9041 42.4648 63.9041C42.4648 62.9489 42.4648 61.9937 42.4648 61.0095Z" fill="white"/>
<path d="M28.235 61.0098C29.2699 61.0098 30.3047 61.0098 31.3709 61.0098C31.3709 64.8307 31.3709 68.6517 31.3709 72.5884C33.4406 72.5884 35.5103 72.5884 37.6427 72.5884C37.6427 73.6233 37.6427 74.6581 37.6427 75.7243C36.3073 75.7303 34.9719 75.7346 33.6365 75.7376C33.1819 75.7388 32.7272 75.7404 32.2726 75.7425C31.6206 75.7454 30.9685 75.7468 30.3165 75.7479C30.112 75.7491 29.9074 75.7504 29.6967 75.7516C29.2094 75.7517 28.7221 75.7393 28.235 75.7243C27.8146 75.3039 27.963 74.7247 27.9626 74.1531C27.9618 73.8689 27.9611 73.5848 27.9603 73.292C27.9608 72.9827 27.9613 72.6734 27.9618 72.3547C27.9615 72.0398 27.9613 71.7248 27.9611 71.4003C27.9607 70.7327 27.9612 70.0651 27.9623 69.3975C27.9637 68.5401 27.9629 67.6827 27.9615 66.8252C27.9604 66.0099 27.9612 65.1946 27.9618 64.3793C27.9613 64.07 27.9608 63.7607 27.9603 63.442C27.961 63.1579 27.9618 62.8738 27.9626 62.581C27.9628 62.3294 27.963 62.0779 27.9632 61.8187C27.9938 61.251 27.9938 61.251 28.235 61.0098Z" fill="white"/>
<path d="M16.6562 61.252C17.6115 61.252 18.5667 61.252 19.5509 61.252C19.5509 64.9933 19.5509 68.7347 19.5509 72.5894C21.8594 72.5894 24.1679 72.5894 26.5464 72.5894C26.5464 73.6242 26.5464 74.6591 26.5464 75.7253C23.2826 75.7253 20.0189 75.7253 16.6562 75.7253C16.6562 70.9491 16.6562 66.1729 16.6562 61.252Z" fill="white"/>
<path d="M70.9297 61.252C71.8849 61.252 72.8402 61.252 73.8244 61.252C73.8298 63.1349 73.8342 65.0178 73.8369 66.9007C73.8381 67.775 73.8398 68.6492 73.8426 69.5234C73.8452 70.3664 73.8466 71.2095 73.8472 72.0525C73.8479 72.5321 73.8498 73.0117 73.8517 73.4913C73.8517 73.781 73.8517 74.0708 73.8517 74.3693C73.8523 74.6259 73.8528 74.8825 73.8534 75.1468C73.8244 75.7253 73.8244 75.7253 73.5831 75.9665C72.7075 75.9665 71.8319 75.9665 70.9297 75.9665C70.9297 71.1107 70.9297 66.2549 70.9297 61.252Z" fill="white"/>
<path d="M58.63 69.9355C60.6201 69.9355 62.6102 69.9355 64.6606 69.9355C64.6606 71.846 64.6606 73.7565 64.6606 75.7249C64.581 75.7249 64.5014 75.7249 64.4193 75.7249C64.4193 73.9736 64.4193 72.2223 64.4193 70.418C62.6681 70.418 60.9168 70.418 59.1125 70.418C59.1152 70.8157 59.118 71.2134 59.1209 71.6232C59.1232 72.1411 59.1254 72.659 59.1275 73.177C59.1295 73.4396 59.1316 73.7022 59.1337 73.9727C59.1344 74.2223 59.1352 74.4718 59.136 74.7289C59.1373 74.9601 59.1385 75.1912 59.1398 75.4294C59.1125 75.9661 59.1125 75.9661 58.8712 76.2073C58.384 76.2248 57.8963 76.2275 57.4088 76.2224C57.1423 76.2202 56.8758 76.218 56.6013 76.2158C56.292 76.2116 56.292 76.2116 55.9766 76.2073C55.9766 76.1277 55.9766 76.0481 55.9766 75.9661C56.8522 75.9661 57.7278 75.9661 58.63 75.9661C58.63 73.976 58.63 71.9859 58.63 69.9355Z" fill="#F8F3E6"/>
</svg>
